<svg width="29" height="29" viewBox="0 0 29 29" fill="none" xmlns="http://www.w3.org/2000/svg">
<g clip-path="url(#clip0_2119_17)">
<path d="M14.5 29C18.3456 29 22.0338 27.4723 24.753 24.753C27.4723 22.0338 29 18.3456 29 14.5C29 10.6544 27.4723 6.96623 24.753 4.24695C22.0338 1.52767 18.3456 0 14.5 0C10.6544 0 6.96623 1.52767 4.24695 4.24695C1.52767 6.96623 0 10.6544 0 14.5C0 18.3456 1.52767 22.0338 4.24695 24.753C6.96623 27.4723 10.6544 29 14.5 29ZM9.61758 9.3627C10.065 8.09961 11.2658 7.25 12.6082 7.25H15.9104C17.8871 7.25 19.4844 8.85293 19.4844 10.824C19.4844 12.1041 18.799 13.2879 17.6889 13.9279L15.8594 14.9758C15.848 15.7121 15.242 16.3125 14.5 16.3125C13.7467 16.3125 13.1406 15.7064 13.1406 14.9531V14.1885C13.1406 13.7014 13.4012 13.2539 13.826 13.0104L16.3352 11.5717C16.6014 11.4187 16.7656 11.1355 16.7656 10.8297C16.7656 10.3539 16.3805 9.97441 15.9104 9.97441H12.6082C12.4156 9.97441 12.2457 10.0934 12.1834 10.2746L12.1607 10.3426C11.9115 11.0506 11.1299 11.4187 10.4275 11.1695C9.7252 10.9203 9.35137 10.1387 9.60059 9.43633L9.62324 9.36836L9.61758 9.3627ZM12.6875 19.9375C12.6875 19.4568 12.8785 18.9958 13.2184 18.6559C13.5583 18.316 14.0193 18.125 14.5 18.125C14.9807 18.125 15.4417 18.316 15.7816 18.6559C16.1215 18.9958 16.3125 19.4568 16.3125 19.9375C16.3125 20.4182 16.1215 20.8792 15.7816 21.2191C15.4417 21.559 14.9807 21.75 14.5 21.75C14.0193 21.75 13.5583 21.559 13.2184 21.2191C12.8785 20.8792 12.6875 20.4182 12.6875 19.9375Z" fill="#D5A9EF"/>
</g>
<defs>
<clipPath id="clip0_2119_17">
<rect width="29" height="29" fill="white"/>
</clipPath>
</defs>
</svg>
