<svg width="28" height="28" viewBox="0 0 28 28" fill="none" xmlns="http://www.w3.org/2000/svg">
<g clip-path="url(#clip0_2103_6)">
<path d="M14.5633 2.64141L12.7148 4.025C12.4195 4.24375 12.25 4.59375 12.25 4.96016V5.45781C12.25 5.82969 12.5508 6.13047 12.9227 6.13047C13.0539 6.13047 13.1852 6.09219 13.2945 6.01562L15.5805 4.48984C15.6898 4.41875 15.8211 4.375 15.9523 4.375H16.007C16.3461 4.375 16.625 4.65391 16.625 4.99297C16.625 5.15703 16.5594 5.31563 16.4445 5.43047L15.3562 6.51875C15.0391 6.83594 14.6508 7.07656 14.2242 7.21875L12.775 7.7C12.4578 7.80391 12.25 8.09922 12.25 8.43281C12.25 8.63516 12.168 8.83203 12.0258 8.97969L11.0469 9.95859C10.6969 10.3086 10.5055 10.7789 10.5055 11.2711V11.5062C10.5055 12.4031 11.2492 13.1305 12.1406 13.1305C12.7422 13.1305 13.3 12.7914 13.568 12.2555L13.7867 11.8125C13.918 11.55 14.1914 11.3805 14.4867 11.3805C14.7328 11.3805 14.9625 11.4953 15.1102 11.6922L16.0016 12.8789C16.1164 13.0375 16.3023 13.125 16.4992 13.125C16.9586 13.125 17.2594 12.6383 17.0516 12.2281L16.9914 12.1023C16.8 11.7195 16.9914 11.2547 17.4016 11.118L18.5609 10.7297C18.9766 10.593 19.2555 10.2047 19.2555 9.76719C19.2555 9.20391 19.7094 8.75 20.2727 8.75H21.875C22.3563 8.75 22.75 9.14375 22.75 9.625C22.75 10.1062 22.3563 10.5 21.875 10.5H20.743C20.3492 10.5 19.9664 10.6586 19.6875 10.9375L19.4305 11.1945C19.3156 11.3094 19.25 11.468 19.25 11.632C19.25 11.9711 19.5289 12.25 19.868 12.25H20.4859C20.8141 12.25 21.1313 12.3813 21.3609 12.6109L21.7164 12.9664C21.8148 13.0648 21.8695 13.2016 21.8695 13.3383C21.8695 13.475 21.8148 13.6117 21.7164 13.7102L21.3062 14.1203C21.1094 14.3281 21 14.5961 21 14.875C21 15.1539 21.1094 15.4219 21.3117 15.6242L22.3125 16.625C22.8703 17.1828 23.6305 17.5 24.4234 17.5H24.8281C25.1836 16.3953 25.375 15.2195 25.375 14C25.375 7.90781 20.5844 2.93125 14.5633 2.64141ZM23.9695 19.4797C23.7672 19.3375 23.5211 19.2555 23.2586 19.2555C22.9305 19.2555 22.6133 19.1242 22.3836 18.8945L21.6562 18.1562C21.2352 17.7352 20.6719 17.5 20.0758 17.5C19.5453 17.5 19.0258 17.3086 18.6211 16.9641L17.1719 15.7172C16.5375 15.1758 15.7281 14.875 14.8914 14.875H13.7484C13.0594 14.875 12.3812 15.0773 11.807 15.4602L10.3086 16.4609C9.33516 17.1117 8.75 18.2055 8.75 19.3758V19.5508C8.75 20.4805 9.11641 21.3719 9.77266 22.0281L10.6477 22.9031C11.1125 23.368 11.7414 23.6305 12.3977 23.6305H13.5625C14.2898 23.6305 14.875 24.2156 14.875 24.943C14.875 25.0797 14.8969 25.2164 14.9352 25.3422C18.8344 25.025 22.1812 22.7391 23.9695 19.4797ZM0 14C0 10.287 1.475 6.72601 4.10051 4.10051C6.72601 1.475 10.287 0 14 0C17.713 0 21.274 1.475 23.8995 4.10051C26.525 6.72601 28 10.287 28 14C28 17.713 26.525 21.274 23.8995 23.8995C21.274 26.525 17.713 28 14 28C10.287 28 6.72601 26.525 4.10051 23.8995C1.475 21.274 0 17.713 0 14ZM10.243 5.50703C9.90391 5.16797 9.34609 5.16797 9.00703 5.50703L7.25703 7.25703C6.91797 7.59609 6.91797 8.15391 7.25703 8.49297C7.59609 8.83203 8.15391 8.83203 8.49297 8.49297L10.243 6.74297C10.582 6.40391 10.582 5.84609 10.243 5.50703Z" fill="white"/>
</g>
<defs>
<clipPath id="clip0_2103_6">
<rect width="28" height="28" fill="white"/>
</clipPath>
</defs>
</svg>
