<svg width="22" height="25" viewBox="0 0 22 25" fill="none" xmlns="http://www.w3.org/2000/svg">
<path d="M3.14286 1.5625C1.40937 1.5625 0 2.96387 0 4.6875V20.3125C0 22.0361 1.40937 23.4375 3.14286 23.4375H18.8571C20.5906 23.4375 22 22.0361 22 20.3125V4.6875C22 2.96387 20.5906 1.5625 18.8571 1.5625H3.14286ZM16.5491 10.2051L10.2634 16.4551C9.80179 16.9141 9.05536 16.9141 8.59866 16.4551L5.4558 13.3301C4.9942 12.8711 4.9942 12.1289 5.4558 11.6748C5.91741 11.2207 6.66384 11.2158 7.12054 11.6748L9.42857 13.9697L14.8795 8.54492C15.3411 8.08594 16.0875 8.08594 16.5442 8.54492C17.0009 9.00391 17.0058 9.74609 16.5442 10.2002L16.5491 10.2051Z" fill="#EEF5CE" fill-opacity="0.5"/>
</svg>
