<svg width="25" height="26" viewBox="0 0 25 26" fill="none" xmlns="http://www.w3.org/2000/svg">
<g clip-path="url(#clip0_2120_72)">
<path d="M12.5 0.40625C5.59476 0.40625 0 6.04297 0 13C0 19.957 5.59476 25.5938 12.5 25.5938C19.4052 25.5938 25 19.957 25 13C25 6.04297 19.4052 0.40625 12.5 0.40625ZM18.2964 8.97305C18.1099 10.9637 17.2933 15.798 16.88 18.0273C16.7036 18.9719 16.3609 19.2867 16.0282 19.3172C15.3024 19.3832 14.753 18.8348 14.0474 18.3676C12.9486 17.6414 12.3236 17.1895 11.2601 16.4785C10.0252 15.6609 10.8266 15.209 11.5272 14.4727C11.7137 14.2797 14.9093 11.3496 14.9698 11.0855C14.9798 11.05 14.9849 10.9281 14.9093 10.8621C14.8337 10.7961 14.7278 10.8215 14.6522 10.8367C14.5413 10.8604 12.7839 12.0301 9.38004 14.3457C8.88273 14.691 8.43078 14.8586 8.02419 14.8484C7.5756 14.8383 6.71875 14.5945 6.07863 14.3863C5.29738 14.1324 4.67238 13.9953 4.72782 13.5586C4.7547 13.3318 5.06552 13.0999 5.66028 12.8629C9.30276 11.265 11.7322 10.2104 12.9486 9.69922C16.4214 8.24687 17.1421 7.99297 17.6109 7.98281C17.7167 7.98281 17.9435 8.0082 18.0948 8.13008C18.1934 8.21749 18.2563 8.33877 18.2712 8.47031C18.2984 8.63639 18.3069 8.80505 18.2964 8.97305Z" fill="#D5A9EF"/>
</g>
<defs>
<clipPath id="clip0_2120_72">
<rect width="25" height="26" fill="white"/>
</clipPath>
</defs>
</svg>
