<svg width="37" height="30" viewBox="0 0 37 30" fill="none" xmlns="http://www.w3.org/2000/svg">
<g clip-path="url(#clip0_2119_23)">
<path d="M20.4541 3.1702L19.0897 0.369414C18.8642 -0.116914 18.1589 -0.134492 17.9103 0.369414L16.5459 3.1702L13.5223 3.60965C12.9847 3.69168 12.7534 4.36551 13.1523 4.76981L15.3492 6.93777L14.8289 9.99051C14.748 10.5354 15.303 10.9573 15.8002 10.7054L18.5116 9.25223L21.2056 10.6819C21.7028 10.9339 22.2636 10.512 22.1769 9.96707L21.6566 6.91434L23.8534 4.76981C24.2466 4.37137 24.0211 3.69754 23.4834 3.60965L20.4598 3.1702H20.4541ZM14.8 15.0003C13.7767 15.0003 12.95 15.8382 12.95 16.8753V28.1253C12.95 29.1624 13.7767 30.0003 14.8 30.0003H22.2C23.2233 30.0003 24.05 29.1624 24.05 28.1253V16.8753C24.05 15.8382 23.2233 15.0003 22.2 15.0003H14.8ZM1.85 18.7503C0.826719 18.7503 0 19.5882 0 20.6253V28.1253C0 29.1624 0.826719 30.0003 1.85 30.0003H9.25C10.2733 30.0003 11.1 29.1624 11.1 28.1253V20.6253C11.1 19.5882 10.2733 18.7503 9.25 18.7503H1.85ZM25.9 24.3753V28.1253C25.9 29.1624 26.7267 30.0003 27.75 30.0003H35.15C36.1733 30.0003 37 29.1624 37 28.1253V24.3753C37 23.3382 36.1733 22.5003 35.15 22.5003H27.75C26.7267 22.5003 25.9 23.3382 25.9 24.3753Z" fill="#D5A9EF"/>
</g>
<defs>
<clipPath id="clip0_2119_23">
<rect width="37" height="30" fill="white"/>
</clipPath>
</defs>
</svg>
