<svg width="34" height="27" viewBox="0 0 34 27" fill="none" xmlns="http://www.w3.org/2000/svg">
<g clip-path="url(#clip0_2119_28)">
<path d="M5.1 6.75C5.1 4.95979 5.81643 3.2429 7.09167 1.97703C8.36692 0.711159 10.0965 0 11.9 0C13.7035 0 15.4331 0.711159 16.7083 1.97703C17.9836 3.2429 18.7 4.95979 18.7 6.75C18.7 8.54021 17.9836 10.2571 16.7083 11.523C15.4331 12.7888 13.7035 13.5 11.9 13.5C10.0965 13.5 8.36692 12.7888 7.09167 11.523C5.81643 10.2571 5.1 8.54021 5.1 6.75ZM0 25.4338C0 20.2395 4.23938 16.0312 9.47219 16.0312H14.3278C19.5606 16.0312 23.8 20.2395 23.8 25.4338C23.8 26.2986 23.0934 27 22.2222 27H1.57781C0.706563 27 0 26.2986 0 25.4338ZM32.3691 27H25.0431C25.33 26.5043 25.5 25.9295 25.5 25.3125V24.8906C25.5 21.6896 24.0603 18.8156 21.7919 16.8855C21.9194 16.8803 22.0416 16.875 22.1691 16.875H25.4309C30.1644 16.875 34 20.6824 34 25.3811C34 26.2775 33.2669 27 32.3691 27ZM22.95 13.5C21.3031 13.5 19.8156 12.8355 18.7372 11.765C19.7838 10.3623 20.4 8.62734 20.4 6.75C20.4 5.33672 20.0494 4.00254 19.4278 2.83184C20.4159 2.11465 21.6325 1.6875 22.95 1.6875C26.2384 1.6875 28.9 4.32949 28.9 7.59375C28.9 10.858 26.2384 13.5 22.95 13.5Z" fill="#D5A9EF"/>
</g>
<defs>
<clipPath id="clip0_2119_28">
<rect width="34" height="27" fill="white"/>
</clipPath>
</defs>
</svg>
