<svg width="14" height="28" viewBox="0 0 14 28" fill="none" xmlns="http://www.w3.org/2000/svg">
<path d="M6.49849 28C6.26409 28 6.06822 27.9213 5.9109 27.764C5.75358 27.6067 5.67492 27.4109 5.67492 27.1765V24.6489C4.3763 24.4799 3.25503 24.0629 2.31113 23.3977C1.36726 22.7326 0.61764 21.814 0.0622792 20.6421C-0.0243012 20.4478 -0.0206085 20.2382 0.0733562 20.0133C0.167321 19.7885 0.320936 19.6327 0.534203 19.5461C0.728473 19.4659 0.93647 19.4675 1.15819 19.5509C1.37991 19.6343 1.53723 19.7763 1.63016 19.9769C2.11793 20.9694 2.75563 21.7312 3.54326 22.2622C4.33091 22.7933 5.36243 23.0588 6.63783 23.0588C7.89004 23.0588 9.034 22.7468 10.0697 22.1228C11.1055 21.4989 11.6234 20.4932 11.6234 19.1059C11.6234 17.9339 11.2422 16.9927 10.4799 16.2821C9.71764 15.5716 8.29125 14.8806 6.20074 14.2091C4.07222 13.5312 2.57403 12.7568 1.70617 11.8858C0.838277 11.0147 0.404332 9.88024 0.404332 8.48235C0.404332 6.95144 0.991371 5.72881 2.16545 4.81448C3.3395 3.90014 4.50932 3.40602 5.67492 3.33212V0.823529C5.67492 0.589126 5.75358 0.393277 5.9109 0.235983C6.06822 0.0786615 6.26409 0 6.49849 0C6.73287 0 6.92872 0.0786615 7.08604 0.235983C7.24336 0.393277 7.32202 0.589126 7.32202 0.823529V3.33212C8.3018 3.43347 9.17072 3.68528 9.92878 4.08755C10.6869 4.48981 11.3341 5.06153 11.8704 5.80271C11.9908 5.99064 12.023 6.18808 11.967 6.39503C11.9111 6.60196 11.7765 6.75927 11.5632 6.86696C11.3689 6.96833 11.1662 6.99104 10.955 6.93506C10.7439 6.87912 10.5549 6.75401 10.3881 6.55974C9.96784 6.04871 9.45419 5.63747 8.84711 5.32601C8.24004 5.01455 7.48461 4.85882 6.58084 4.85882C5.30964 4.85882 4.23694 5.1951 3.36274 5.86765C2.48853 6.5402 2.05143 7.41177 2.05143 8.48235C2.05143 9.49381 2.41041 10.3131 3.12836 10.9403C3.84629 11.5674 5.28429 12.222 7.44238 12.9041C9.44207 13.5375 10.9133 14.351 11.8562 15.3446C12.799 16.3381 13.2704 17.5855 13.2704 19.0869C13.2704 20.7403 12.6887 22.0537 11.5252 23.0272C10.3617 24.0006 8.96062 24.5475 7.32202 24.6679V27.1765C7.32202 27.4109 7.24336 27.6067 7.08604 27.764C6.92872 27.9213 6.73287 28 6.49849 28Z" fill="white"/>
</svg>
