<svg width="20" height="23" viewBox="0 0 20 23" fill="none" xmlns="http://www.w3.org/2000/svg">
<path d="M16.9193 22.1667C16.1098 22.1667 15.4209 21.8831 14.8526 21.316C14.2842 20.7488 14 20.0602 14 19.25C14 19.0949 14.0135 18.9342 14.0404 18.7679C14.0673 18.6017 14.1077 18.4453 14.1615 18.2987L5.12884 12.9769C4.84316 13.2985 4.51111 13.5494 4.13268 13.7297C3.75427 13.9099 3.34894 14 2.91667 14C2.10648 14 1.41782 13.7167 0.850704 13.1501C0.283568 12.5835 0 11.8954 0 11.086C0 10.2765 0.283568 9.5876 0.850704 9.01924C1.41782 8.45086 2.10648 8.16667 2.91667 8.16667C3.34894 8.16667 3.75427 8.25678 4.13268 8.43701C4.51111 8.61724 4.84316 8.86815 5.12884 9.18975L14.1615 3.86794C14.1077 3.72136 14.0673 3.56496 14.0404 3.39873C14.0135 3.2325 14 3.07181 14 2.91667C14 2.10647 14.2833 1.41782 14.8499 0.850704C15.4165 0.283568 16.1046 0 16.914 0C17.7235 0 18.4124 0.283306 18.9808 0.849917C19.5491 1.41655 19.8333 2.10458 19.8333 2.91401C19.8333 3.72348 19.5498 4.4124 18.9826 4.98076C18.4155 5.54914 17.7269 5.83333 16.9167 5.83333C16.4844 5.83333 16.0791 5.74322 15.7007 5.56299C15.3222 5.38276 14.9902 5.13184 14.7045 4.81025L5.67181 10.1321C5.72565 10.2786 5.76604 10.4345 5.79297 10.5997C5.81988 10.7649 5.83333 10.9245 5.83333 11.0787C5.83333 11.2329 5.81988 11.3941 5.79297 11.5623C5.76604 11.7306 5.72565 11.888 5.67181 12.0346L14.7045 17.3564C14.9902 17.0348 15.3222 16.7839 15.7007 16.6037C16.0791 16.4235 16.4844 16.3333 16.9167 16.3333C17.7269 16.3333 18.4155 16.6166 18.9826 17.1833C19.5498 17.7499 19.8333 18.4379 19.8333 19.2474C19.8333 20.0568 19.55 20.7457 18.9834 21.3141C18.4168 21.8825 17.7288 22.1667 16.9193 22.1667ZM16.9167 4.66667C17.3968 4.66667 17.8085 4.49503 18.1518 4.15176C18.495 3.80849 18.6667 3.39679 18.6667 2.91667C18.6667 2.43654 18.495 2.02485 18.1518 1.68157C17.8085 1.3383 17.3968 1.16667 16.9167 1.16667C16.4365 1.16667 16.0248 1.3383 15.6816 1.68157C15.3383 2.02485 15.1667 2.43654 15.1667 2.91667C15.1667 3.39679 15.3383 3.80849 15.6816 4.15176C16.0248 4.49503 16.4365 4.66667 16.9167 4.66667ZM2.91667 12.8333C3.39679 12.8333 3.80849 12.6617 4.15176 12.3184C4.49503 11.9752 4.66667 11.5635 4.66667 11.0833C4.66667 10.6032 4.49503 10.1915 4.15176 9.84824C3.80849 9.50497 3.39679 9.33333 2.91667 9.33333C2.43654 9.33333 2.02485 9.50497 1.68158 9.84824C1.3383 10.1915 1.16667 10.6032 1.16667 11.0833C1.16667 11.5635 1.3383 11.9752 1.68158 12.3184C2.02485 12.6617 2.43654 12.8333 2.91667 12.8333ZM16.9167 21C17.3968 21 17.8085 20.8284 18.1518 20.4851C18.495 20.1418 18.6667 19.7301 18.6667 19.25C18.6667 18.7699 18.495 18.3582 18.1518 18.0149C17.8085 17.6716 17.3968 17.5 16.9167 17.5C16.4365 17.5 16.0248 17.6716 15.6816 18.0149C15.3383 18.3582 15.1667 18.7699 15.1667 19.25C15.1667 19.7301 15.3383 20.1418 15.6816 20.4851C16.0248 20.8284 16.4365 21 16.9167 21Z" fill="white"/>
</svg>
