<svg width="32" height="32" viewBox="0 0 32 32" fill="none" xmlns="http://www.w3.org/2000/svg">
<path d="M23.9688 12C23.9875 11.6687 24 11.3375 24 11C24 7.8125 23.0063 5 21.4875 3.025C19.9688 1.05625 18.0125 0 16 0C13.9875 0 12.0313 1.05625 10.5125 3.025C8.99376 5 8.00001 7.8125 8.00001 11C8.00001 11.3375 8.01251 11.6687 8.03126 12H15V20H13C12.5625 20 12.1438 20.0938 11.7688 20.2625L4.26251 12H6.03126C6.01251 11.6687 6.00001 11.3375 6.00001 11C6.00001 7 7.38751 3.425 9.56876 1.04375C3.87501 3.08125 1.16251 7.6625 0.262511 10.85C0.093761 11.4438 0.562511 12 1.18126 12H1.55626L10.325 21.6437C10.1188 22.05 10 22.5125 10 23V29C10 30.6562 11.3438 32 13 32H19C20.6563 32 22 30.6562 22 29V23C22 22.5125 21.8813 22.05 21.675 21.6437L30.4438 12H30.8188C31.4375 12 31.9063 11.4438 31.7375 10.85C30.8375 7.6625 28.125 3.08125 22.4313 1.04375C24.6125 3.425 26 7.00625 26 11C26 11.3375 25.9875 11.6687 25.9688 12H27.7375L20.2313 20.2625C19.8563 20.0938 19.4375 20 19 20H17V12H23.9688Z" fill="#D5A9EF"/>
</svg>
