<svg width="25" height="24" viewBox="0 0 25 24" fill="none" xmlns="http://www.w3.org/2000/svg">
<path d="M4.898 19.3496L4.82691 19.2177L4.69496 19.1466L0.896785 17.1001L0.882514 17.0925L0.867774 17.0857C0.86241 17.0833 0.858299 17.0811 0.855248 17.0793C0.854817 17.0769 0.854369 17.0738 0.853973 17.07L0.356869 17.1228L0.853972 17.07C0.85066 17.0389 0.85482 17.0241 0.857002 17.018C0.858943 17.0125 0.864069 17.0005 0.880945 16.982L1.14791 16.746L1.15941 16.7359L1.17026 16.725C1.17957 16.7157 1.18837 16.7087 1.19706 16.7032L1.23425 16.7088L4.88178 17.2523L5.13092 17.2894L5.30903 17.1113L12.3749 10.0454L12.8485 9.5718L12.2598 9.25238L0.649236 2.95266L0.649294 2.95256L0.639462 2.9475C0.552048 2.90254 0.518137 2.85403 0.504093 2.76093C0.490582 2.67136 0.507214 2.60798 0.587519 2.52768L0.233966 2.17413L0.58752 2.52768L0.816736 2.29846C0.847441 2.26776 0.89122 2.23796 0.959452 2.21428L0.959574 2.21424C0.994058 2.20226 1.03479 2.19748 1.09409 2.21121L16.0502 6.00507L16.3262 6.07507L16.5272 5.87352L21.5396 0.847968C21.5397 0.847862 21.5398 0.847756 21.54 0.84765C21.7793 0.608451 22.0436 0.5 22.3567 0.5C22.6698 0.5 22.9343 0.608549 23.1737 0.847953C23.4105 1.0848 23.5216 1.35368 23.5216 1.68134C23.5216 2.00897 23.4105 2.27784 23.1737 2.51468L23.1714 2.51701L18.201 7.55287L18.0031 7.75334L18.0721 8.02645L21.8326 22.9279C21.8497 23.0053 21.8461 23.0653 21.8321 23.1161L21.832 23.1162C21.819 23.1636 21.7923 23.2143 21.7363 23.2704L21.7362 23.2704L21.6217 23.385C21.6217 23.385 21.6217 23.385 21.6216 23.385C21.6216 23.385 21.6216 23.3851 21.6216 23.3851C21.5288 23.4778 21.436 23.5114 21.3 23.4968C21.1875 23.4847 21.1104 23.4408 21.0382 23.3111C21.0379 23.3106 21.0377 23.3102 21.0374 23.3097L14.792 11.8172L14.4724 11.2291L13.9991 11.7024L6.99871 18.7027L6.82265 18.8788L6.85706 19.1254L7.36785 22.786L7.37168 22.8135L7.37853 22.8404L7.37878 22.8407C7.35643 22.8918 7.32969 22.9296 7.29988 22.9594L7.18536 23.0739C7.11551 23.1438 7.08035 23.1428 7.03688 23.1345C6.95735 23.1193 6.91558 23.0891 6.87846 23.0263L4.898 19.3496Z" stroke="white"/>
</svg>
